<svg xmlns="http://www.w3.org/2000/svg" viewBox="0 9.470000267028809 327.1000061035156 36.37999725341797" data-asc="0.9052734375"><defs/><g><g><g transform="translate(0, 0)"><path d="M17.09 45.26L17.09 41.46Q14.06 45.85 8.86 45.85Q6.57 45.85 4.58 44.97Q2.59 44.09 1.62 42.76Q0.66 41.43 0.27 39.50Q0 38.21 0 35.40L0 19.34L4.39 19.34L4.39 33.72Q4.39 37.16 4.66 38.35Q5.08 40.09 6.42 41.08Q7.76 42.07 9.74 42.07Q11.72 42.07 13.45 41.05Q15.19 40.04 15.91 38.29Q16.63 36.55 16.63 33.23L16.63 19.34L21.02 19.34L21.02 45.26L17.09 45.26ZM27.93 14.53L27.93 9.47L32.32 9.47L32.32 14.53L27.93 14.53M27.93 45.26L27.93 19.34L32.32 19.34L32.32 45.26L27.93 45.26ZM37.30 34.52L37.30 30.10L50.81 30.10L50.81 34.52L37.30 34.52ZM72.58 35.77L76.90 36.33Q76.20 40.80 73.28 43.32Q70.36 45.85 66.11 45.85Q60.79 45.85 57.56 42.37Q54.32 38.89 54.32 32.40Q54.32 28.20 55.71 25.05Q57.10 21.90 59.95 20.32Q62.79 18.75 66.14 18.75Q70.36 18.75 73.05 20.89Q75.73 23.02 76.49 26.95L72.22 27.61Q71.61 25 70.06 23.68Q68.51 22.36 66.31 22.36Q62.99 22.36 60.91 24.74Q58.84 27.12 58.84 32.28Q58.84 37.50 60.84 39.87Q62.84 42.24 66.06 42.24Q68.65 42.24 70.39 40.65Q72.12 39.06 72.58 35.77ZM79.03 32.30Q79.03 25.10 83.03 21.63Q86.38 18.75 91.19 18.75Q96.53 18.75 99.93 22.25Q103.32 25.76 103.32 31.93Q103.32 36.94 101.82 39.81Q100.32 42.68 97.45 44.26Q94.58 45.85 91.19 45.85Q85.74 45.85 82.39 42.36Q79.03 38.87 79.03 32.30M83.54 32.30Q83.54 37.28 85.72 39.76Q87.89 42.24 91.19 42.24Q94.46 42.24 96.63 39.75Q98.80 37.26 98.80 32.15Q98.80 27.34 96.62 24.87Q94.43 22.39 91.19 22.39Q87.89 22.39 85.72 24.85Q83.54 27.32 83.54 32.30ZM108.37 45.26L108.37 9.47L112.77 9.47L112.77 45.26L108.37 45.26ZM119.48 45.26L119.48 9.47L123.88 9.47L123.88 45.26L119.48 45.26ZM148.44 36.91L152.98 37.48Q151.90 41.46 149.00 43.65Q146.09 45.85 141.58 45.85Q135.89 45.85 132.56 42.35Q129.22 38.84 129.22 32.52Q129.22 25.98 132.59 22.36Q135.96 18.75 141.33 18.75Q146.53 18.75 149.83 22.29Q153.13 25.83 153.13 32.25Q153.13 32.64 153.10 33.42L133.76 33.42Q134.01 37.70 136.18 39.97Q138.35 42.24 141.60 42.24Q144.02 42.24 145.73 40.97Q147.44 39.70 148.44 36.91M134.01 29.81L148.49 29.81Q148.19 26.54 146.83 24.90Q144.73 22.36 141.38 22.36Q138.35 22.36 136.29 24.39Q134.23 26.42 134.01 29.81ZM175.42 35.77L179.74 36.33Q179.03 40.80 176.11 43.32Q173.19 45.85 168.95 45.85Q163.62 45.85 160.39 42.37Q157.15 38.89 157.15 32.40Q157.15 28.20 158.54 25.05Q159.94 21.90 162.78 20.32Q165.63 18.75 168.97 18.75Q173.19 18.75 175.88 20.89Q178.56 23.02 179.32 26.95L175.05 27.61Q174.44 25 172.89 23.68Q171.34 22.36 169.14 22.36Q165.82 22.36 163.75 24.74Q161.67 27.12 161.67 32.28Q161.67 37.50 163.67 39.87Q165.67 42.24 168.90 42.24Q171.48 42.24 173.22 40.65Q174.95 39.06 175.42 35.77ZM193.09 41.33L193.73 45.21Q191.87 45.61 190.41 45.61Q188.01 45.61 186.69 44.85Q185.38 44.09 184.84 42.86Q184.30 41.63 184.30 37.67L184.30 22.75L181.08 22.75L181.08 19.34L184.30 19.34L184.30 12.92L188.67 10.28L188.67 19.34L193.09 19.34L193.09 22.75L188.67 22.75L188.67 37.92Q188.67 39.79 188.90 40.33Q189.14 40.87 189.66 41.19Q190.19 41.50 191.16 41.50Q191.89 41.50 193.09 41.33ZM197.41 14.53L197.41 9.47L201.81 9.47L201.81 14.53L197.41 14.53M197.41 45.26L197.41 19.34L201.81 19.34L201.81 45.26L197.41 45.26ZM206.86 32.30Q206.86 25.10 210.86 21.63Q214.21 18.75 219.02 18.75Q224.37 18.75 227.76 22.25Q231.15 25.76 231.15 31.93Q231.15 36.94 229.65 39.81Q228.15 42.68 225.28 44.26Q222.41 45.85 219.02 45.85Q213.57 45.85 210.22 42.36Q206.86 38.87 206.86 32.30M211.38 32.30Q211.38 37.28 213.55 39.76Q215.72 42.24 219.02 42.24Q222.29 42.24 224.46 39.75Q226.64 37.26 226.64 32.15Q226.64 27.34 224.45 24.87Q222.27 22.39 219.02 22.39Q215.72 22.39 213.55 24.85Q211.38 27.32 211.38 32.30ZM236.30 45.26L236.30 19.34L240.26 19.34L240.26 23.02Q243.12 18.75 248.51 18.75Q250.85 18.75 252.82 19.59Q254.79 20.43 255.76 21.80Q256.74 23.17 257.13 25.05Q257.37 26.27 257.37 29.32L257.37 45.26L252.98 45.26L252.98 29.49Q252.98 26.81 252.47 25.48Q251.95 24.15 250.65 23.35Q249.34 22.56 247.58 22.56Q244.78 22.56 242.74 24.34Q240.70 26.12 240.70 31.10L240.70 45.26L236.30 45.26ZM262.40 34.52L262.40 30.10L275.90 30.10L275.90 34.52L262.40 34.52ZM280.79 45.26L280.79 9.47L285.18 9.47L285.18 29.88L295.58 19.34L301.27 19.34L291.36 28.96L302.27 45.26L296.85 45.26L288.28 32.01L285.18 34.99L285.18 45.26L280.79 45.26ZM305.79 14.53L305.79 9.47L310.18 9.47L310.18 14.53L305.79 14.53M305.79 45.26L305.79 19.34L310.18 19.34L310.18 45.26L305.79 45.26ZM326.46 41.33L327.10 45.21Q325.24 45.61 323.78 45.61Q321.39 45.61 320.07 44.85Q318.75 44.09 318.21 42.86Q317.68 41.63 317.68 37.67L317.68 22.75L314.45 22.75L314.45 19.34L317.68 19.34L317.68 12.92L322.05 10.28L322.05 19.34L326.46 19.34L326.46 22.75L322.05 22.75L322.05 37.92Q322.05 39.79 322.28 40.33Q322.51 40.87 323.03 41.19Q323.56 41.50 324.54 41.50Q325.27 41.50 326.46 41.33Z"/></g></g></g></svg>
