<svg width="320" height="156" viewBox="0 0 320 156" fill="none" xmlns="http://www.w3.org/2000/svg">
<g clip-path="url(#clip0_35281_18636)">
<path d="M0 26V0H26.6667M0 26V52M0 26H26.6667M0 52V78M0 52H26.6667M0 78V104M0 78H26.6667M0 104V130M0 104H26.6667M0 130V156H26.6667M0 130H26.6667M26.6667 0V26M26.6667 0H53.3333M26.6667 26V52M26.6667 26H53.3333M26.6667 52V78M26.6667 52H53.3333M26.6667 78V104M26.6667 78H53.3333M26.6667 104V130M26.6667 104H53.3333M26.6667 130V156M26.6667 130H53.3333M26.6667 156H53.3333M53.3333 0V26M53.3333 0H80M53.3333 26V52M53.3333 26H80M53.3333 52V78M53.3333 52H80M53.3333 78V104M53.3333 78H80M53.3333 104V130M53.3333 104H80M53.3333 130V156M53.3333 130H80M53.3333 156H80M80 0V26M80 0H106.667M80 26V52M80 26H106.667M80 52V78M80 52H106.667M80 78V104M80 78H106.667M80 104V130M80 104H106.667M80 130V156M80 130H106.667M80 156H106.667M106.667 0V26M106.667 0H133.333M106.667 26V52M106.667 26H133.333M106.667 52V78M106.667 52H133.333M106.667 78V104M106.667 78H133.333M106.667 104V130M106.667 104H133.333M106.667 130V156M106.667 130H133.333M106.667 156H133.333M133.333 0V26M133.333 0H160M133.333 26V52M133.333 26H160M133.333 52V78M133.333 52H160M133.333 78V104M133.333 78H160M133.333 104V130M133.333 104H160M133.333 130V156M133.333 130H160M133.333 156H160M160 0V26M160 0H186.667M160 26V52M160 26H186.667M160 52V78M160 52H186.667M160 78V104M160 78H186.667M160 104V130M160 104H186.667M160 130V156M160 130H186.667M160 156H186.667M186.667 0V26M186.667 0H213.333M186.667 26V52M186.667 26H213.333M186.667 52V78M186.667 52H213.333M186.667 78V104M186.667 78H213.333M186.667 104V130M186.667 104H213.333M186.667 130V156M186.667 130H213.333M186.667 156H213.333M213.333 0V26M213.333 0H240M213.333 26V52M213.333 26H240M213.333 52V78M213.333 52H240M213.333 78V104M213.333 78H240M213.333 104V130M213.333 104H240M213.333 130V156M213.333 130H240M213.333 156H240M240 0V26M240 0H266.667M240 26V52M240 26H266.667M240 52V78M240 52H266.667M240 78V104M240 78H266.667M240 104V130M240 104H266.667M240 130V156M240 130H266.667M240 156H266.667M266.667 0V26M266.667 0H293.333M266.667 26V52M266.667 26H293.333M266.667 52V78M266.667 52H293.333M266.667 78V104M266.667 78H293.333M266.667 104V130M266.667 104H293.333M266.667 130V156M266.667 130H293.333M266.667 156H293.333M293.333 0V26M293.333 0H320V26M293.333 26V52M293.333 26H320M293.333 52V78M293.333 52H320M293.333 78V104M293.333 78H320M293.333 104V130M293.333 104H320M293.333 130V156M293.333 130H320M293.333 156H320V130M320 26V52M320 52V78M320 78V104M320 104V130" stroke="url(#paint0_radial_35281_18636)" stroke-opacity="0.24"/>
<path d="M105.95 58C107.082 58 108 58.7959 108 59.7778V88.2222C108 89.2041 107.082 90 105.95 90L54.0535 90C52.3065 90 51.3605 88.2257 52.4917 87.071L64.1698 75.1512C64.8202 74.4874 64.8202 73.5126 64.1698 72.8488L52.4917 60.929C51.3605 59.7743 52.3065 58 54.0535 58L105.95 58Z" fill="#C0D5FF"/>
<path d="M214.05 58C212.918 58 212 58.7959 212 59.7778V88.2222C212 89.2041 212.918 90 214.05 90L265.947 90C267.693 90 268.64 88.2257 267.508 87.071L255.83 75.1512C255.18 74.4874 255.18 73.5126 255.83 72.8488L267.508 60.929C268.64 59.7743 267.693 58 265.947 58L214.05 58Z" fill="#C0D5FF"/>
<g filter="url(#filter0_d_35281_18636)">
<path d="M157.028 13.2999C158.617 11.5359 161.383 11.5359 162.972 13.2999L165.525 16.1343C166.842 17.5959 169.025 17.8834 170.675 16.8123L173.875 14.7352C175.866 13.4426 178.538 14.1586 179.617 16.2737L181.349 19.6723C182.242 21.4248 184.277 22.2678 186.148 21.6602L189.776 20.482C192.034 19.7487 194.43 21.132 194.924 23.4541L195.718 27.1852C196.127 29.1093 197.874 30.4502 199.839 30.3475L203.648 30.1485C206.019 30.0246 207.975 31.9809 207.852 34.3518L207.652 38.1611C207.55 40.1255 208.891 41.873 210.815 42.2823L214.546 43.076C216.868 43.5699 218.251 45.9659 217.518 48.2239L216.34 51.852C215.732 53.7229 216.575 55.7579 218.328 56.6512L221.726 58.3835C223.841 59.4616 224.557 62.134 223.265 64.1253L221.188 67.3248C220.117 68.9747 220.404 71.1585 221.866 72.475L224.7 75.0278C226.464 76.6167 226.464 79.3833 224.7 80.9722L221.866 83.525C220.404 84.8415 220.117 87.0253 221.188 88.6752L223.265 91.8747C224.557 93.866 223.841 96.5384 221.726 97.6165L218.328 99.3488C216.575 100.242 215.732 102.277 216.34 104.148L217.518 107.776C218.251 110.034 216.868 112.43 214.546 112.924L210.815 113.718C208.891 114.127 207.55 115.874 207.652 117.839L207.852 121.648C207.975 124.019 206.019 125.975 203.648 125.852L199.839 125.652C197.874 125.55 196.127 126.891 195.718 128.815L194.924 132.546C194.43 134.868 192.034 136.251 189.776 135.518L186.148 134.34C184.277 133.732 182.242 134.575 181.349 136.328L179.617 139.726C178.538 141.841 175.866 142.557 173.875 141.265L170.675 139.188C169.025 138.117 166.842 138.404 165.525 139.866L162.972 142.7C161.383 144.464 158.617 144.464 157.028 142.7L154.475 139.866C153.158 138.404 150.975 138.117 149.325 139.188L146.125 141.265C144.134 142.557 141.462 141.841 140.383 139.726L138.651 136.328C137.758 134.575 135.723 133.732 133.852 134.34L130.224 135.518C127.966 136.251 125.57 134.868 125.076 132.546L124.282 128.815C123.873 126.891 122.126 125.55 120.161 125.652L116.352 125.852C113.981 125.975 112.025 124.019 112.148 121.648L112.348 117.839C112.45 115.874 111.109 114.127 109.185 113.718L105.454 112.924C103.132 112.43 101.749 110.034 102.482 107.776L103.66 104.148C104.268 102.277 103.425 100.242 101.672 99.3488L98.2737 97.6165C96.1586 96.5384 95.4425 93.866 96.7352 91.8747L98.8123 88.6752C99.8834 87.0253 99.5959 84.8415 98.1343 83.525L95.2999 80.9722C93.5359 79.3833 93.5359 76.6167 95.2999 75.0278L98.1343 72.475C99.5959 71.1585 99.8834 68.9747 98.8123 67.3248L96.7352 64.1253C95.4426 62.134 96.1586 59.4616 98.2737 58.3835L101.672 56.6512C103.425 55.7579 104.268 53.7229 103.66 51.852L102.482 48.2239C101.749 45.9659 103.132 43.5699 105.454 43.076L109.185 42.2823C111.109 41.873 112.45 40.1255 112.348 38.1611L112.148 34.3518C112.025 31.9809 113.981 30.0246 116.352 30.1485L120.161 30.3475C122.126 30.4502 123.873 29.1093 124.282 27.1852L125.076 23.4541C125.57 21.132 127.966 19.7487 130.224 20.482L133.852 21.6602C135.723 22.2678 137.758 21.4248 138.651 19.6723L140.383 16.2738C141.462 14.1586 144.134 13.4425 146.125 14.7352L149.325 16.8123C150.975 17.8834 153.158 17.5959 154.475 16.1343L157.028 13.2999Z" fill="white"/>
<path d="M167.011 14.7958L164.458 11.9614C162.075 9.31537 157.925 9.31537 155.542 11.9614L152.989 14.7958C152.331 15.5266 151.239 15.6703 150.414 15.1348L147.214 13.0577C144.227 11.1187 140.219 12.1928 138.602 15.3655L136.869 18.764C136.423 19.6403 135.405 20.0618 134.47 19.758L130.842 18.5798C127.455 17.4799 123.861 19.5549 123.12 23.038L122.326 26.7691C122.121 27.7311 121.248 28.4016 120.265 28.3503L116.456 28.1512C112.9 27.9654 109.965 30.8999 110.151 34.4561L110.35 38.2655C110.402 39.2477 109.731 40.1214 108.769 40.3261L105.038 41.1197C101.555 41.8607 99.4799 45.4547 100.58 48.8417L101.758 52.4697C102.062 53.4052 101.64 54.4227 100.764 54.8693L97.3655 56.6016C94.1928 58.2188 93.1187 62.2274 95.0577 65.2143L97.1348 68.4138C97.6703 69.2387 97.5266 70.3306 96.7958 70.9889L93.9614 73.5418C91.3154 75.925 91.3154 80.075 93.9614 82.4582L96.7958 85.0111C97.5266 85.6694 97.6703 86.7613 97.1348 87.5862L95.0577 90.7857C93.1187 93.7726 94.1928 97.7812 97.3655 99.3984L100.764 101.131C101.64 101.577 102.062 102.595 101.758 103.53L100.58 107.158C99.4799 110.545 101.555 114.139 105.038 114.88L108.769 115.674C109.731 115.879 110.402 116.752 110.35 117.735L110.151 121.544C109.965 125.1 112.9 128.035 116.456 127.849L120.265 127.65C121.248 127.598 122.121 128.269 122.326 129.231L123.12 132.962C123.861 136.445 127.455 138.52 130.842 137.42L134.47 136.242C135.405 135.938 136.423 136.36 136.869 137.236L138.602 140.635C140.219 143.807 144.227 144.881 147.214 142.942L150.414 140.865C151.239 140.33 152.331 140.473 152.989 141.204L155.542 144.039C157.925 146.685 162.075 146.685 164.458 144.039L167.011 141.204C167.669 140.473 168.761 140.33 169.586 140.865L172.786 142.942C175.773 144.881 179.781 143.807 181.398 140.635L183.131 137.236C183.577 136.36 184.595 135.938 185.53 136.242L189.158 137.42C192.545 138.52 196.139 136.445 196.88 132.962L197.674 129.231C197.879 128.269 198.752 127.598 199.735 127.65L203.544 127.849C207.1 128.035 210.035 125.1 209.849 121.544L209.65 117.735C209.598 116.752 210.269 115.879 211.231 115.674L214.962 114.88C218.445 114.139 220.52 110.545 219.42 107.158L218.242 103.53C217.938 102.595 218.36 101.577 219.236 101.131L222.635 99.3984C225.807 97.7812 226.881 93.7726 224.942 90.7857L222.865 87.5862C222.33 86.7613 222.473 85.6694 223.204 85.0111L226.039 82.4582C228.685 80.075 228.685 75.925 226.039 73.5418L223.204 70.9889C222.473 70.3306 222.33 69.2387 222.865 68.4138L224.942 65.2143C226.881 62.2274 225.807 58.2188 222.635 56.6016L219.236 54.8693C218.36 54.4227 217.938 53.4052 218.242 52.4697L219.42 48.8417C220.52 45.4547 218.445 41.8607 214.962 41.1197L211.231 40.3261C210.269 40.1214 209.598 39.2477 209.65 38.2655L209.849 34.4561C210.035 30.8999 207.1 27.9654 203.544 28.1512L199.735 28.3503C198.752 28.4016 197.879 27.7311 197.674 26.7691L196.88 23.038C196.139 19.5549 192.545 17.4799 189.158 18.5798L185.53 19.758C184.595 20.0618 183.577 19.6403 183.131 18.764L181.398 15.3655C179.781 12.1928 175.773 11.1187 172.786 13.0577L169.586 15.1348C168.761 15.6703 167.669 15.5266 167.011 14.7958Z" stroke="white" stroke-width="4"/>
</g>
<path d="M157.028 13.2999C158.617 11.5359 161.383 11.5359 162.972 13.2999L165.525 16.1343C166.842 17.5959 169.025 17.8834 170.675 16.8123L173.875 14.7352C175.866 13.4426 178.538 14.1586 179.617 16.2737L181.349 19.6723C182.242 21.4248 184.277 22.2678 186.148 21.6602L189.776 20.482C192.034 19.7487 194.43 21.132 194.924 23.4541L195.718 27.1852C196.127 29.1093 197.874 30.4502 199.839 30.3475L203.648 30.1485C206.019 30.0246 207.975 31.9809 207.852 34.3518L207.652 38.1611C207.55 40.1255 208.891 41.873 210.815 42.2823L214.546 43.076C216.868 43.5699 218.251 45.9659 217.518 48.2239L216.34 51.852C215.732 53.7229 216.575 55.7579 218.328 56.6512L221.726 58.3835C223.841 59.4616 224.557 62.134 223.265 64.1253L221.188 67.3248C220.117 68.9747 220.404 71.1585 221.866 72.475L224.7 75.0278C226.464 76.6167 226.464 79.3833 224.7 80.9722L221.866 83.525C220.404 84.8415 220.117 87.0253 221.188 88.6752L223.265 91.8747C224.557 93.866 223.841 96.5384 221.726 97.6165L218.328 99.3488C216.575 100.242 215.732 102.277 216.34 104.148L217.518 107.776C218.251 110.034 216.868 112.43 214.546 112.924L210.815 113.718C208.891 114.127 207.55 115.874 207.652 117.839L207.852 121.648C207.975 124.019 206.019 125.975 203.648 125.852L199.839 125.652C197.874 125.55 196.127 126.891 195.718 128.815L194.924 132.546C194.43 134.868 192.034 136.251 189.776 135.518L186.148 134.34C184.277 133.732 182.242 134.575 181.349 136.328L179.617 139.726C178.538 141.841 175.866 142.557 173.875 141.265L170.675 139.188C169.025 138.117 166.842 138.404 165.525 139.866L162.972 142.7C161.383 144.464 158.617 144.464 157.028 142.7L154.475 139.866C153.158 138.404 150.975 138.117 149.325 139.188L146.125 141.265C144.134 142.557 141.462 141.841 140.383 139.726L138.651 136.328C137.758 134.575 135.723 133.732 133.852 134.34L130.224 135.518C127.966 136.251 125.57 134.868 125.076 132.546L124.282 128.815C123.873 126.891 122.126 125.55 120.161 125.652L116.352 125.852C113.981 125.975 112.025 124.019 112.148 121.648L112.348 117.839C112.45 115.874 111.109 114.127 109.185 113.718L105.454 112.924C103.132 112.43 101.749 110.034 102.482 107.776L103.66 104.148C104.268 102.277 103.425 100.242 101.672 99.3488L98.2737 97.6165C96.1586 96.5384 95.4425 93.866 96.7352 91.8747L98.8123 88.6752C99.8834 87.0253 99.5959 84.8415 98.1343 83.525L95.2999 80.9722C93.5359 79.3833 93.5359 76.6167 95.2999 75.0278L98.1343 72.475C99.5959 71.1585 99.8834 68.9747 98.8123 67.3248L96.7352 64.1253C95.4426 62.134 96.1586 59.4616 98.2737 58.3835L101.672 56.6512C103.425 55.7579 104.268 53.7229 103.66 51.852L102.482 48.2239C101.749 45.9659 103.132 43.5699 105.454 43.076L109.185 42.2823C111.109 41.873 112.45 40.1255 112.348 38.1611L112.148 34.3518C112.025 31.9809 113.981 30.0246 116.352 30.1485L120.161 30.3475C122.126 30.4502 123.873 29.1093 124.282 27.1852L125.076 23.4541C125.57 21.132 127.966 19.7487 130.224 20.482L133.852 21.6602C135.723 22.2678 137.758 21.4248 138.651 19.6723L140.383 16.2738C141.462 14.1586 144.134 13.4425 146.125 14.7352L149.325 16.8123C150.975 17.8834 153.158 17.5959 154.475 16.1343L157.028 13.2999Z" fill="#C0D5FF"/>
<path d="M112 78C112 51.4903 133.49 30 160 30V30C186.51 30 208 51.4903 208 78V78C208 104.51 186.51 126 160 126V126C133.49 126 112 104.51 112 78V78Z" fill="white"/>
<path d="M110 78C110 105.614 132.386 128 160 128C187.614 128 210 105.614 210 78C210 50.3858 187.614 28 160 28C132.386 28 110 50.3858 110 78Z" stroke="url(#paint1_linear_35281_18636)" stroke-opacity="0.16" stroke-width="4" style="mix-blend-mode:color-dodge"/>
</g>
<defs>
<filter id="filter0_d_35281_18636" x="87.9769" y="6.97681" width="144.046" height="144.046" filterUnits="userSpaceOnUse" color-interpolation-filters="sRGB">
<feFlood flood-opacity="0" result="BackgroundImageFix"/>
<feColorMatrix in="SourceAlpha" type="matrix" values="0 0 0 0 0 0 0 0 0 0 0 0 0 0 0 0 0 0 127 0" result="hardAlpha"/>
<feOffset dy="1"/>
<feGaussianBlur stdDeviation="1"/>
<feComposite in2="hardAlpha" operator="out"/>
<feColorMatrix type="matrix" values="0 0 0 0 0.0392157 0 0 0 0 0.0509804 0 0 0 0 0.0784314 0 0 0 0.03 0"/>
<feBlend mode="normal" in2="BackgroundImageFix" result="effect1_dropShadow_35281_18636"/>
<feBlend mode="normal" in="SourceGraphic" in2="effect1_dropShadow_35281_18636" result="shape"/>
</filter>
<radialGradient id="paint0_radial_35281_18636" cx="0" cy="0" r="1" gradientUnits="userSpaceOnUse" gradientTransform="translate(160 78) rotate(90) scale(78 129.665)">
<stop stop-color="#717784"/>
<stop offset="1" stop-color="#717784" stop-opacity="0"/>
</radialGradient>
<linearGradient id="paint1_linear_35281_18636" x1="160" y1="30" x2="160" y2="126" gradientUnits="userSpaceOnUse">
<stop stop-color="#122368"/>
<stop offset="1" stop-color="#122368" stop-opacity="0"/>
</linearGradient>
<clipPath id="clip0_35281_18636">
<rect width="320" height="156" fill="white"/>
</clipPath>
</defs>
</svg>
